<svg width="191" height="54" viewBox="0 0 191 54" fill="none" xmlns="http://www.w3.org/2000/svg">
<path fill-rule="evenodd" clip-rule="evenodd" d="M45 31C45 18.2975 34.9264 8 22.5 8C10.0736 8 0 18.2975 0 31C0 43.7025 10.0736 54 22.5 54C34.9264 54 45 43.7025 45 31ZM41.25 31C41.25 20.4146 32.8553 11.8333 22.5 11.8333C12.1447 11.8333 3.75 20.4146 3.75 31C3.75 41.5854 12.1447 50.1667 22.5 50.1667C28.8138 50.1667 34.3988 46.9765 37.7965 42.0871L24.375 34.166V43.9375H20.625V34.5934L12.647 39.3019L10.772 35.9821L19.1121 31.0599L10.9053 26.2165L12.7803 22.8967L20.625 27.5265V17.1042H24.375V27.9539L33.1625 22.7677L35.0375 26.0874L26.6121 31.0599L39.6516 38.7556C40.6792 36.3844 41.25 33.7604 41.25 31Z" fill="white"/>
<path d="M76.8125 50.75V39.375H76.5938C75.0479 41.4167 72.7875 42.4375 69.8125 42.4375C66.8958 42.4375 64.4896 41.4021 62.5938 39.3312C60.6979 37.2604 59.75 34.5042 59.75 31.0625C59.75 27.6208 60.6979 24.8646 62.5938 22.7937C64.4896 20.7229 66.8958 19.6875 69.8125 19.6875C71.0958 19.6875 72.2625 19.9208 73.3125 20.3875C74.3917 20.825 75.0917 21.2042 75.4125 21.525C75.7333 21.8167 76.1271 22.225 76.5938 22.75H76.8125L77.25 20.125H81.1875V50.75H76.8125ZM65.9188 36.4437C67.1438 37.8146 68.6604 38.5 70.4688 38.5C72.2771 38.5 73.7792 37.8146 74.975 36.4437C76.2 35.0729 76.8125 33.2792 76.8125 31.0625C76.8125 28.8458 76.2 27.0521 74.975 25.6812C73.7792 24.3104 72.2771 23.625 70.4688 23.625C68.6604 23.625 67.1438 24.3104 65.9188 25.6812C64.7229 27.0521 64.125 28.8458 64.125 31.0625C64.125 33.2792 64.7229 35.0729 65.9188 36.4437ZM83.5818 35.4375H87.9568C87.9568 36.225 88.3943 36.9687 89.2693 37.6687C90.1443 38.3687 91.3839 38.7187 92.988 38.7187C94.5047 38.7187 95.6422 38.4417 96.4005 37.8875C97.188 37.3042 97.5818 36.6333 97.5818 35.875C97.5818 35.0875 97.3339 34.475 96.838 34.0375C96.3422 33.5708 95.4964 33.2354 94.3005 33.0312L90.363 32.375C86.1339 31.675 84.0193 29.5604 84.0193 26.0312C84.0193 24.1937 84.763 22.6771 86.2505 21.4812C87.7672 20.2854 89.9401 19.6875 92.7693 19.6875C94.2568 19.6875 95.5985 19.9208 96.7943 20.3875C98.0193 20.8542 98.9672 21.4521 99.638 22.1812C100.338 22.9104 100.863 23.6542 101.213 24.4125C101.563 25.1417 101.738 25.8271 101.738 26.4687H97.363C97.363 25.7104 96.9693 25.0104 96.1818 24.3687C95.3943 23.7271 94.2568 23.4062 92.7693 23.4062C91.311 23.4062 90.2172 23.6687 89.488 24.1937C88.7589 24.6896 88.3943 25.3021 88.3943 26.0312C88.3943 27.3437 89.488 28.2187 91.6755 28.6562L95.613 29.3125C99.8422 30.0125 101.957 32.2 101.957 35.875C101.957 37.7417 101.184 39.3021 99.638 40.5563C98.1214 41.8104 95.9047 42.4375 92.988 42.4375C91.3547 42.4375 89.8818 42.1896 88.5693 41.6937C87.286 41.1979 86.2943 40.5708 85.5943 39.8125C84.9235 39.0542 84.413 38.3104 84.063 37.5812C83.7422 36.8229 83.5818 36.1083 83.5818 35.4375ZM105.493 37.4062V24.2812H101.993V20.125H105.493V14H109.868V20.125H114.899V24.2812H109.868V36.75C109.868 37.625 110.305 38.0625 111.18 38.0625H114.899V42H110.305C108.759 42 107.564 41.5917 106.718 40.775C105.901 39.9583 105.493 38.8354 105.493 37.4062ZM131.773 42L131.336 39.5937H131.117C130.68 40.1479 130.155 40.6292 129.542 41.0375C128.142 41.9708 126.48 42.4375 124.555 42.4375C122.163 42.4375 120.253 41.8104 118.823 40.5563C117.394 39.3021 116.68 37.6687 116.68 35.6562C116.68 33.4104 117.423 31.6458 118.911 30.3625C120.428 29.0792 122.673 28.4375 125.648 28.4375H131.117V28C131.117 26.5708 130.709 25.4479 129.892 24.6312C129.076 23.8146 127.953 23.4062 126.523 23.4062C125.123 23.4062 124.044 23.7271 123.286 24.3687C122.528 24.9812 122.076 25.6812 121.93 26.4687H117.555C117.671 24.5437 118.532 22.9396 120.136 21.6562C121.74 20.3437 123.869 19.6875 126.523 19.6875C129.353 19.6875 131.555 20.4312 133.13 21.9187C134.705 23.4062 135.492 25.4333 135.492 28V42H131.773ZM131.117 32.8125V31.9375H125.867C124.263 31.9375 123.053 32.2583 122.236 32.9C121.448 33.5417 121.055 34.3875 121.055 35.4375C121.055 36.4583 121.39 37.2604 122.061 37.8437C122.732 38.4271 123.709 38.7187 124.992 38.7187C126.976 38.7187 128.492 38.2083 129.542 37.1875C130.592 36.1375 131.117 34.6792 131.117 32.8125ZM139.218 42V20.125H142.937L143.374 22.0937H143.593C143.622 22.0646 143.709 21.9625 143.855 21.7875C144.03 21.6125 144.132 21.4958 144.162 21.4375C144.22 21.3792 144.337 21.2771 144.512 21.1312C144.687 20.9562 144.832 20.8396 144.949 20.7812C145.066 20.7229 145.226 20.65 145.43 20.5625C145.634 20.4458 145.839 20.3729 146.043 20.3437C146.276 20.2854 146.539 20.2417 146.83 20.2125C147.122 20.1542 147.428 20.125 147.749 20.125H151.687V24.0625H148.187C145.124 24.0625 143.593 25.5792 143.593 28.6125V42H139.218ZM152.16 42V36.9687H157.191V42H152.16ZM176.019 42L175.582 39.5937H175.363C174.925 40.1479 174.4 40.6292 173.788 41.0375C172.388 41.9708 170.725 42.4375 168.8 42.4375C166.409 42.4375 164.498 41.8104 163.069 40.5563C161.64 39.3021 160.925 37.6687 160.925 35.6562C160.925 33.4104 161.669 31.6458 163.157 30.3625C164.673 29.0792 166.919 28.4375 169.894 28.4375H175.363V28C175.363 26.5708 174.954 25.4479 174.138 24.6312C173.321 23.8146 172.198 23.4062 170.769 23.4062C169.369 23.4062 168.29 23.7271 167.532 24.3687C166.773 24.9812 166.321 25.6812 166.175 26.4687H161.8C161.917 24.5437 162.777 22.9396 164.382 21.6562C165.986 20.3437 168.115 19.6875 170.769 19.6875C173.598 19.6875 175.8 20.4312 177.375 21.9187C178.95 23.4062 179.738 25.4333 179.738 28V42H176.019ZM175.363 32.8125V31.9375H170.113C168.509 31.9375 167.298 32.2583 166.482 32.9C165.694 33.5417 165.3 34.3875 165.3 35.4375C165.3 36.4583 165.636 37.2604 166.307 37.8437C166.977 38.4271 167.954 38.7187 169.238 38.7187C171.221 38.7187 172.738 38.2083 173.788 37.1875C174.838 36.1375 175.363 34.6792 175.363 32.8125ZM183.463 42V20.125H187.838V42H183.463ZM183.245 15.9687V11.375H188.057V15.9687H183.245Z" fill="white"/>
</svg>
