<svg width="87" height="113" viewBox="0 0 87 113" fill="none" xmlns="http://www.w3.org/2000/svg">
<g filter="url(#filter0_b_13_10)">
<rect width="44" height="64" fill="#292A49"/>
<rect x="0.5" y="0.5" width="43" height="63" stroke="white"/>
</g>
<g filter="url(#filter1_b_13_10)">
<rect x="43" y="49" width="44" height="64" fill="#292A49"/>
<rect x="43.5" y="49.5" width="43" height="63" stroke="white"/>
</g>
<path d="M33.5234 35.9922C33.5234 38.1797 33.2656 40.1172 32.75 41.8047C32.25 43.4766 31.5234 44.875 30.5703 46C29.6328 47.1562 28.4766 48.0312 27.1016 48.625C25.7422 49.2031 24.1953 49.4922 22.4609 49.4922C20.7422 49.4922 19.1953 49.2031 17.8203 48.625C16.4453 48.0312 15.2812 47.1562 14.3281 46C13.3594 44.875 12.6172 43.4766 12.1016 41.8047C11.6016 40.1172 11.3516 38.1797 11.3516 35.9922V27.9062C11.3516 25.7188 11.6016 23.7891 12.1016 22.1172C12.6172 20.4297 13.3516 19.0078 14.3047 17.8516C15.2578 16.7109 16.4141 15.8516 17.7734 15.2734C19.1484 14.6797 20.6953 14.3828 22.4141 14.3828C24.1484 14.3828 25.6953 14.6797 27.0547 15.2734C28.4297 15.8516 29.6016 16.7109 30.5703 17.8516C31.5078 19.0078 32.2344 20.4297 32.75 22.1172C33.2656 23.7891 33.5234 25.7188 33.5234 27.9062V35.9922ZM16.9766 34L27.8281 25.7734C27.7656 24.5547 27.5938 23.5 27.3125 22.6094C27.0469 21.7188 26.6641 20.9922 26.1641 20.4297C25.7266 19.9297 25.1875 19.5547 24.5469 19.3047C23.9219 19.0547 23.2109 18.9297 22.4141 18.9297C21.5547 18.9297 20.7969 19.0781 20.1406 19.375C19.4844 19.6719 18.9375 20.1094 18.5 20.6875C17.9844 21.3438 17.6016 22.1953 17.3516 23.2422C17.1016 24.2734 16.9766 25.4922 16.9766 26.8984V31.4922C16.9766 32.0859 16.9766 32.5391 16.9766 32.8516C16.9766 33.1641 16.9766 33.5469 16.9766 34ZM27.875 36.9297V32.6172C27.875 32.2266 27.875 31.8203 27.875 31.3984C27.875 30.9766 27.875 30.5391 27.875 30.0859L17.0234 38.2656C17.1016 39.3438 17.2656 40.2969 17.5156 41.125C17.7812 41.9531 18.1328 42.6406 18.5703 43.1875C19.0078 43.7812 19.5469 44.2266 20.1875 44.5234C20.8438 44.8203 21.6016 44.9688 22.4609 44.9688C23.3047 44.9688 24.0469 44.8281 24.6875 44.5469C25.3281 44.25 25.875 43.8203 26.3281 43.2578C26.8438 42.6016 27.2266 41.7422 27.4766 40.6797C27.7422 39.6172 27.875 38.3672 27.875 36.9297Z" fill="white"/>
<path d="M69.7969 98H64.1484V70.8125L55.4062 74.0234V69.0781L69.4453 63.875H69.7969V98Z" fill="white"/>
<defs>
<filter id="filter0_b_13_10" x="-128" y="-128" width="300" height="320" filterUnits="userSpaceOnUse" color-interpolation-filters="sRGB">
<feFlood flood-opacity="0" result="BackgroundImageFix"/>
<feGaussianBlur in="BackgroundImageFix" stdDeviation="64"/>
<feComposite in2="SourceAlpha" operator="in" result="effect1_backgroundBlur_13_10"/>
<feBlend mode="normal" in="SourceGraphic" in2="effect1_backgroundBlur_13_10" result="shape"/>
</filter>
<filter id="filter1_b_13_10" x="-85" y="-79" width="300" height="320" filterUnits="userSpaceOnUse" color-interpolation-filters="sRGB">
<feFlood flood-opacity="0" result="BackgroundImageFix"/>
<feGaussianBlur in="BackgroundImageFix" stdDeviation="64"/>
<feComposite in2="SourceAlpha" operator="in" result="effect1_backgroundBlur_13_10"/>
<feBlend mode="normal" in="SourceGraphic" in2="effect1_backgroundBlur_13_10" result="shape"/>
</filter>
</defs>
</svg>
